<?xml version="1.0" encoding="UTF-8" standalone="no"?>
<svg
   xmlns:dc="http://purl.org/dc/elements/1.1/"
   xmlns:cc="http://creativecommons.org/ns#"
   xmlns:rdf="http://www.w3.org/1999/02/22-rdf-syntax-ns#"
   xmlns:svg="http://www.w3.org/2000/svg"
   xmlns="http://www.w3.org/2000/svg"
   xmlns:sodipodi="http://sodipodi.sourceforge.net/DTD/sodipodi-0.dtd"
   xmlns:inkscape="http://www.inkscape.org/namespaces/inkscape"
   version="1.1"
   width="24"
   height="24"
   viewBox="0 0 24 24"
   id="svg2"
   inkscape:version="0.91 r13725"
   sodipodi:docname="reddit.svg">
  <metadata
     id="metadata10">
    <rdf:RDF>
      <cc:Work
         rdf:about="">
        <dc:format>image/svg+xml</dc:format>
        <dc:type
           rdf:resource="http://purl.org/dc/dcmitype/StillImage" />
      </cc:Work>
    </rdf:RDF>
  </metadata>
  <defs
     id="defs8" />
  <sodipodi:namedview
     pagecolor="#ffffff"
     bordercolor="#666666"
     borderopacity="1"
     objecttolerance="10"
     gridtolerance="10"
     guidetolerance="10"
     inkscape:pageopacity="0"
     inkscape:pageshadow="2"
     inkscape:window-width="795"
     inkscape:window-height="480"
     id="namedview6"
     showgrid="false"
     inkscape:zoom="9.8333333"
     inkscape:cx="12"
     inkscape:cy="12"
     inkscape:window-x="0"
     inkscape:window-y="27"
     inkscape:window-maximized="0"
     inkscape:current-layer="svg2" />
  <path
     d="M22,11.5C22,10.1 20.9,9 19.5,9C18.9,9 18.3,9.2 17.9,9.6C16.4,8.7 14.6,8.1 12.5,8L13.6,4L17,5A2,2 0 0,0 19,7A2,2 0 0,0 21,5A2,2 0 0,0 19,3C18.3,3 17.6,3.4 17.3,4L13.3,3C13,2.9 12.8,3.1 12.7,3.4L11.5,8C9.5,8.1 7.6,8.7 6.1,9.6C5.7,9.2 5.1,9 4.5,9C3.1,9 2,10.1 2,11.5C2,12.4 2.4,13.1 3.1,13.6L3,14.5C3,18.1 7,21 12,21C17,21 21,18.1 21,14.5L20.9,13.6C21.6,13.1 22,12.4 22,11.5M9,11.8C9.7,11.8 10.2,12.4 10.2,13C10.2,13.6 9.7,14.2 9,14.2C8.3,14.2 7.8,13.7 7.8,13C7.8,12.3 8.3,11.8 9,11.8M15.8,17.2C14,18.3 10,18.3 8.2,17.2C8,17 7.9,16.7 8.1,16.5C8.3,16.3 8.6,16.2 8.8,16.4C10,17.3 14,17.3 15.2,16.4C15.4,16.2 15.7,16.3 15.9,16.5C16.1,16.7 16,17 15.8,17.2M15,14.2C14.3,14.2 13.8,13.6 13.8,13C13.8,12.3 14.4,11.8 15,11.8C15.7,11.8 16.2,12.4 16.2,13C16.2,13.7 15.7,14.2 15,14.2Z"
     id="path4"
     style="fill:#757575" />
</svg>
